<mxfile host="app.diagrams.net" agent="Mozilla/5.0 (X11; Linux x86_64) AppleWebKit/537.36 (KHTML, like Gecko) Chrome/129.0.0.0 Safari/537.36" version="24.7.15">
  <diagram name="Page-1" id="YG1A7nVYlIyUcJUno38L">
    <mxGraphModel dx="2474" dy="1756" grid="0" gridSize="10" guides="1" tooltips="1" connect="1" arrows="1" fold="1" page="0" pageScale="1" pageWidth="850" pageHeight="1100" math="0" shadow="0">
      <root>
        <mxCell id="0" />
        <mxCell id="1" parent="0" />
        <mxCell id="PARw06MYuslkGvHakzXU-6" value="ConfigActor" style="swimlane;" vertex="1" parent="1">
          <mxGeometry x="157" y="-50" width="204" height="200" as="geometry" />
        </mxCell>
        <mxCell id="PARw06MYuslkGvHakzXU-7" value="Channel receiver" style="whiteSpace=wrap;html=1;" vertex="1" parent="PARw06MYuslkGvHakzXU-6">
          <mxGeometry y="25" width="201" height="32" as="geometry" />
        </mxCell>
        <mxCell id="PARw06MYuslkGvHakzXU-8" value="Config" style="whiteSpace=wrap;html=1;" vertex="1" parent="PARw06MYuslkGvHakzXU-6">
          <mxGeometry y="92" width="201" height="32" as="geometry" />
        </mxCell>
        <mxCell id="PARw06MYuslkGvHakzXU-20" style="edgeStyle=none;curved=1;rounded=0;orthogonalLoop=1;jettySize=auto;html=1;exitX=0.25;exitY=0;exitDx=0;exitDy=0;fontSize=12;startSize=8;endSize=8;" edge="1" parent="PARw06MYuslkGvHakzXU-6" source="PARw06MYuslkGvHakzXU-7" target="PARw06MYuslkGvHakzXU-7">
          <mxGeometry relative="1" as="geometry" />
        </mxCell>
        <mxCell id="PARw06MYuslkGvHakzXU-46" value="Create config" style="whiteSpace=wrap;html=1;" vertex="1" parent="PARw06MYuslkGvHakzXU-6">
          <mxGeometry y="60" width="201" height="32" as="geometry" />
        </mxCell>
        <mxCell id="PARw06MYuslkGvHakzXU-9" value="Confg" style="swimlane;" vertex="1" parent="1">
          <mxGeometry x="-228" y="123" width="201" height="200" as="geometry" />
        </mxCell>
        <mxCell id="PARw06MYuslkGvHakzXU-10" value="string title&lt;span style=&quot;white-space: pre;&quot;&gt;&#x9;&lt;/span&gt;" style="whiteSpace=wrap;html=1;" vertex="1" parent="PARw06MYuslkGvHakzXU-9">
          <mxGeometry x="-3" y="27" width="201" height="32" as="geometry" />
        </mxCell>
        <mxCell id="PARw06MYuslkGvHakzXU-11" value="[] options" style="whiteSpace=wrap;html=1;" vertex="1" parent="PARw06MYuslkGvHakzXU-9">
          <mxGeometry y="55" width="201" height="32" as="geometry" />
        </mxCell>
        <mxCell id="PARw06MYuslkGvHakzXU-12" style="edgeStyle=none;curved=1;rounded=0;orthogonalLoop=1;jettySize=auto;html=1;exitX=0.75;exitY=0;exitDx=0;exitDy=0;fontSize=12;startSize=8;endSize=8;" edge="1" parent="PARw06MYuslkGvHakzXU-9" source="PARw06MYuslkGvHakzXU-10" target="PARw06MYuslkGvHakzXU-10">
          <mxGeometry relative="1" as="geometry" />
        </mxCell>
        <mxCell id="PARw06MYuslkGvHakzXU-13" value="Runnable" style="swimlane;" vertex="1" parent="1">
          <mxGeometry x="27" y="-344" width="208" height="126" as="geometry" />
        </mxCell>
        <mxCell id="PARw06MYuslkGvHakzXU-14" value="() Setup" style="whiteSpace=wrap;html=1;" vertex="1" parent="PARw06MYuslkGvHakzXU-13">
          <mxGeometry y="25" width="201" height="32" as="geometry" />
        </mxCell>
        <mxCell id="PARw06MYuslkGvHakzXU-15" value="() start" style="whiteSpace=wrap;html=1;" vertex="1" parent="PARw06MYuslkGvHakzXU-13">
          <mxGeometry y="55" width="201" height="32" as="geometry" />
        </mxCell>
        <mxCell id="PARw06MYuslkGvHakzXU-16" style="edgeStyle=none;curved=1;rounded=0;orthogonalLoop=1;jettySize=auto;html=1;exitX=0.75;exitY=0;exitDx=0;exitDy=0;fontSize=12;startSize=8;endSize=8;" edge="1" parent="PARw06MYuslkGvHakzXU-13" source="PARw06MYuslkGvHakzXU-14" target="PARw06MYuslkGvHakzXU-14">
          <mxGeometry relative="1" as="geometry" />
        </mxCell>
        <mxCell id="PARw06MYuslkGvHakzXU-36" value="() stop" style="whiteSpace=wrap;html=1;" vertex="1" parent="PARw06MYuslkGvHakzXU-13">
          <mxGeometry y="91" width="201" height="32" as="geometry" />
        </mxCell>
        <mxCell id="PARw06MYuslkGvHakzXU-17" value="" style="endArrow=classic;html=1;rounded=0;fontSize=12;startSize=8;endSize=8;curved=1;exitX=0;exitY=0.5;exitDx=0;exitDy=0;entryX=0.995;entryY=0.075;entryDx=0;entryDy=0;entryPerimeter=0;" edge="1" parent="1" source="PARw06MYuslkGvHakzXU-8" target="PARw06MYuslkGvHakzXU-9">
          <mxGeometry width="50" height="50" relative="1" as="geometry">
            <mxPoint x="86" y="29" as="sourcePoint" />
            <mxPoint x="27" y="111" as="targetPoint" />
          </mxGeometry>
        </mxCell>
        <mxCell id="PARw06MYuslkGvHakzXU-18" value="0..n" style="edgeLabel;html=1;align=center;verticalAlign=middle;resizable=0;points=[];fontSize=12;" vertex="1" connectable="0" parent="PARw06MYuslkGvHakzXU-17">
          <mxGeometry x="0.7949" y="4" relative="1" as="geometry">
            <mxPoint as="offset" />
          </mxGeometry>
        </mxCell>
        <mxCell id="PARw06MYuslkGvHakzXU-19" value="1" style="edgeLabel;html=1;align=center;verticalAlign=middle;resizable=0;points=[];fontSize=12;" vertex="1" connectable="0" parent="PARw06MYuslkGvHakzXU-17">
          <mxGeometry x="-0.6885" y="-1" relative="1" as="geometry">
            <mxPoint as="offset" />
          </mxGeometry>
        </mxCell>
        <mxCell id="PARw06MYuslkGvHakzXU-22" value="TcpInterface" style="swimlane;" vertex="1" parent="1">
          <mxGeometry x="526" y="-70" width="201" height="200" as="geometry" />
        </mxCell>
        <mxCell id="PARw06MYuslkGvHakzXU-23" value="() listen" style="whiteSpace=wrap;html=1;" vertex="1" parent="PARw06MYuslkGvHakzXU-22">
          <mxGeometry y="25" width="201" height="32" as="geometry" />
        </mxCell>
        <mxCell id="PARw06MYuslkGvHakzXU-24" value="Duration timeoutDuration" style="whiteSpace=wrap;html=1;" vertex="1" parent="PARw06MYuslkGvHakzXU-22">
          <mxGeometry y="55" width="201" height="32" as="geometry" />
        </mxCell>
        <mxCell id="PARw06MYuslkGvHakzXU-25" style="edgeStyle=none;curved=1;rounded=0;orthogonalLoop=1;jettySize=auto;html=1;exitX=0.25;exitY=0;exitDx=0;exitDy=0;fontSize=12;startSize=8;endSize=8;" edge="1" parent="PARw06MYuslkGvHakzXU-22" source="PARw06MYuslkGvHakzXU-23" target="PARw06MYuslkGvHakzXU-23">
          <mxGeometry relative="1" as="geometry" />
        </mxCell>
        <mxCell id="PARw06MYuslkGvHakzXU-26" value="Semaphore allowedConcurrentConnections" style="whiteSpace=wrap;html=1;" vertex="1" parent="PARw06MYuslkGvHakzXU-22">
          <mxGeometry y="87" width="201" height="32" as="geometry" />
        </mxCell>
        <mxCell id="PARw06MYuslkGvHakzXU-27" value="() handleRequest" style="whiteSpace=wrap;html=1;" vertex="1" parent="PARw06MYuslkGvHakzXU-22">
          <mxGeometry y="122" width="201" height="32" as="geometry" />
        </mxCell>
        <mxCell id="PARw06MYuslkGvHakzXU-29" value="" style="endArrow=none;html=1;rounded=0;dashed=1;dashPattern=1 2;fontSize=12;startSize=8;endSize=8;curved=1;exitX=0;exitY=0.055;exitDx=0;exitDy=0;exitPerimeter=0;entryX=0.99;entryY=0.05;entryDx=0;entryDy=0;entryPerimeter=0;" edge="1" parent="1" target="PARw06MYuslkGvHakzXU-6">
          <mxGeometry relative="1" as="geometry">
            <mxPoint x="542" y="-61" as="sourcePoint" />
            <mxPoint x="408" y="-58" as="targetPoint" />
          </mxGeometry>
        </mxCell>
        <mxCell id="PARw06MYuslkGvHakzXU-30" value="1" style="resizable=0;html=1;whiteSpace=wrap;align=right;verticalAlign=bottom;" connectable="0" vertex="1" parent="PARw06MYuslkGvHakzXU-29">
          <mxGeometry x="1" relative="1" as="geometry">
            <mxPoint x="21" y="2" as="offset" />
          </mxGeometry>
        </mxCell>
        <mxCell id="PARw06MYuslkGvHakzXU-37" value="NotifierÂ " style="swimlane;" vertex="1" parent="1">
          <mxGeometry x="-211" y="-160" width="201" height="200" as="geometry" />
        </mxCell>
        <mxCell id="PARw06MYuslkGvHakzXU-38" value="string path" style="whiteSpace=wrap;html=1;" vertex="1" parent="PARw06MYuslkGvHakzXU-37">
          <mxGeometry y="25" width="201" height="32" as="geometry" />
        </mxCell>
        <mxCell id="PARw06MYuslkGvHakzXU-39" value="() sendToActor" style="whiteSpace=wrap;html=1;" vertex="1" parent="PARw06MYuslkGvHakzXU-37">
          <mxGeometry x="2" y="61" width="201" height="32" as="geometry" />
        </mxCell>
        <mxCell id="PARw06MYuslkGvHakzXU-40" style="edgeStyle=none;curved=1;rounded=0;orthogonalLoop=1;jettySize=auto;html=1;exitX=0.25;exitY=0;exitDx=0;exitDy=0;fontSize=12;startSize=8;endSize=8;" edge="1" parent="PARw06MYuslkGvHakzXU-37" source="PARw06MYuslkGvHakzXU-38" target="PARw06MYuslkGvHakzXU-38">
          <mxGeometry relative="1" as="geometry" />
        </mxCell>
        <mxCell id="PARw06MYuslkGvHakzXU-44" value="() watch" style="whiteSpace=wrap;html=1;" vertex="1" parent="PARw06MYuslkGvHakzXU-37">
          <mxGeometry y="93" width="201" height="32" as="geometry" />
        </mxCell>
        <mxCell id="PARw06MYuslkGvHakzXU-41" value="" style="endArrow=classic;html=1;rounded=0;fontSize=12;startSize=8;endSize=8;curved=1;exitX=0.5;exitY=0;exitDx=0;exitDy=0;" edge="1" parent="1" source="PARw06MYuslkGvHakzXU-37">
          <mxGeometry width="50" height="50" relative="1" as="geometry">
            <mxPoint x="-103" y="-56" as="sourcePoint" />
            <mxPoint x="24" y="-225" as="targetPoint" />
          </mxGeometry>
        </mxCell>
        <mxCell id="PARw06MYuslkGvHakzXU-42" value="" style="endArrow=classic;html=1;rounded=0;fontSize=12;startSize=8;endSize=8;curved=1;exitX=0.468;exitY=0;exitDx=0;exitDy=0;exitPerimeter=0;" edge="1" parent="1" source="PARw06MYuslkGvHakzXU-6">
          <mxGeometry width="50" height="50" relative="1" as="geometry">
            <mxPoint x="-89" y="-6" as="sourcePoint" />
            <mxPoint x="123" y="-217" as="targetPoint" />
          </mxGeometry>
        </mxCell>
        <mxCell id="PARw06MYuslkGvHakzXU-43" value="" style="endArrow=classic;html=1;rounded=0;fontSize=12;startSize=8;endSize=8;curved=1;exitX=0.25;exitY=0;exitDx=0;exitDy=0;entryX=1;entryY=1;entryDx=0;entryDy=0;" edge="1" parent="1" source="PARw06MYuslkGvHakzXU-22" target="PARw06MYuslkGvHakzXU-13">
          <mxGeometry width="50" height="50" relative="1" as="geometry">
            <mxPoint x="535" y="-86" as="sourcePoint" />
            <mxPoint x="403" y="-233" as="targetPoint" />
          </mxGeometry>
        </mxCell>
        <mxCell id="PARw06MYuslkGvHakzXU-47" value="" style="endArrow=classic;html=1;rounded=0;fontSize=12;startSize=8;endSize=8;curved=1;exitX=1;exitY=0.5;exitDx=0;exitDy=0;" edge="1" parent="1" source="PARw06MYuslkGvHakzXU-39">
          <mxGeometry width="50" height="50" relative="1" as="geometry">
            <mxPoint x="-79" y="-58" as="sourcePoint" />
            <mxPoint x="153" y="27" as="targetPoint" />
          </mxGeometry>
        </mxCell>
        <mxCell id="PARw06MYuslkGvHakzXU-49" value="Runs" style="edgeLabel;html=1;align=center;verticalAlign=middle;resizable=0;points=[];fontSize=12;" vertex="1" connectable="0" parent="PARw06MYuslkGvHakzXU-47">
          <mxGeometry x="-0.0185" relative="1" as="geometry">
            <mxPoint as="offset" />
          </mxGeometry>
        </mxCell>
      </root>
    </mxGraphModel>
  </diagram>
</mxfile>
